<?xml version="1.0" encoding="UTF-8" standalone="no"?>
<!-- Created with Inkscape (http://www.inkscape.org/) -->

<svg
   width="1200"
   height="120"
   viewBox="0 0 317.49999 31.750001"
   version="1.1"
   id="svg4461"
   inkscape:version="1.2 (dc2aedaf03, 2022-05-15)"
   sodipodi:docname="ua.svg"
   inkscape:export-filename="../ua.png"
   inkscape:export-xdpi="128"
   inkscape:export-ydpi="128"
   xmlns:inkscape="http://www.inkscape.org/namespaces/inkscape"
   xmlns:sodipodi="http://sodipodi.sourceforge.net/DTD/sodipodi-0.dtd"
   xmlns:xlink="http://www.w3.org/1999/xlink"
   xmlns="http://www.w3.org/2000/svg"
   xmlns:svg="http://www.w3.org/2000/svg">
  <sodipodi:namedview
     id="namedview4463"
     pagecolor="#ffffff"
     bordercolor="#666666"
     borderopacity="1.0"
     inkscape:pageshadow="2"
     inkscape:pageopacity="0.0"
     inkscape:pagecheckerboard="0"
     inkscape:document-units="px"
     showgrid="false"
     units="px"
     inkscape:zoom="1.0383333"
     inkscape:cx="613.0016"
     inkscape:cy="34.670947"
     inkscape:window-width="1920"
     inkscape:window-height="1017"
     inkscape:window-x="-8"
     inkscape:window-y="-8"
     inkscape:window-maximized="1"
     inkscape:current-layer="layer1"
     inkscape:snap-global="true"
     inkscape:snap-bbox="true"
     inkscape:snap-nodes="false"
     inkscape:snap-bbox-midpoints="true"
     inkscape:snap-bbox-edge-midpoints="true"
     inkscape:bbox-nodes="true"
     inkscape:bbox-paths="true"
     inkscape:showpageshadow="2"
     inkscape:deskcolor="#d1d1d1" />
  <defs
     id="defs4458">
    <linearGradient
       inkscape:collect="always"
       id="linearGradient25603">
      <stop
         style="stop-color:#ff0000;stop-opacity:1;"
         offset="0"
         id="stop25599" />
      <stop
         style="stop-color:#ff0000;stop-opacity:0;"
         offset="1"
         id="stop25601" />
    </linearGradient>
    <linearGradient
       inkscape:collect="always"
       id="linearGradient25387">
      <stop
         style="stop-color:#ff0000;stop-opacity:1;"
         offset="0"
         id="stop25383" />
      <stop
         style="stop-color:#ff0000;stop-opacity:0;"
         offset="1"
         id="stop25385" />
    </linearGradient>
    <linearGradient
       inkscape:collect="always"
       id="linearGradient14392-1">
      <stop
         style="stop-color:#ac8f00;stop-opacity:1"
         offset="0"
         id="stop18561" />
      <stop
         style="stop-color:#f0c800;stop-opacity:1"
         offset="0.16236159"
         id="stop18563" />
      <stop
         style="stop-color:#ac8f00;stop-opacity:1"
         offset="0.22421728"
         id="stop18565" />
      <stop
         style="stop-color:#f7ce00;stop-opacity:1"
         offset="0.40068215"
         id="stop18567" />
      <stop
         style="stop-color:#b79903;stop-opacity:1"
         offset="0.67911655"
         id="stop18569" />
      <stop
         style="stop-color:#ffd60a;stop-opacity:1"
         offset="1"
         id="stop18571" />
    </linearGradient>
    <linearGradient
       inkscape:collect="always"
       id="linearGradient14392-1-2">
      <stop
         style="stop-color:#003f81;stop-opacity:1"
         offset="0"
         id="stop14388" />
      <stop
         style="stop-color:#0075f0;stop-opacity:1"
         offset="0.16236159"
         id="stop14887" />
      <stop
         style="stop-color:#0053ac;stop-opacity:1"
         offset="0.22421728"
         id="stop14953" />
      <stop
         style="stop-color:#0077f7;stop-opacity:1"
         offset="0.40068215"
         id="stop15403" />
      <stop
         style="stop-color:#035ab7;stop-opacity:1"
         offset="0.67911655"
         id="stop18073" />
      <stop
         style="stop-color:#0a81ff;stop-opacity:1"
         offset="1"
         id="stop14390" />
    </linearGradient>
    <linearGradient
       inkscape:collect="always"
       xlink:href="#linearGradient14392-1-2"
       id="linearGradient14681"
       x1="0.5096308"
       y1="10.702248"
       x2="318.00964"
       y2="20.538122"
       gradientUnits="userSpaceOnUse" />
    <linearGradient
       inkscape:collect="always"
       xlink:href="#linearGradient14392-1"
       id="linearGradient18574"
       gradientUnits="userSpaceOnUse"
       x1="0.5096308"
       y1="10.702248"
       x2="318.00964"
       y2="20.538122" />
    <radialGradient
       inkscape:collect="always"
       xlink:href="#linearGradient25387"
       id="radialGradient25389"
       cx="17.722098"
       cy="15.875"
       fx="17.722098"
       fy="15.875"
       r="11.372098"
       gradientTransform="matrix(1,0,0,1.1633006,5.2916663,-2.5923968)"
       gradientUnits="userSpaceOnUse" />
    <radialGradient
       inkscape:collect="always"
       xlink:href="#linearGradient25603"
       id="radialGradient25605"
       cx="139.285"
       cy="47.803127"
       fx="139.285"
       fy="47.803127"
       r="99.334663"
       gradientTransform="matrix(3.0882502,0.11078555,-0.00630919,0.17587474,-273.51501,-6.2596532)"
       gradientUnits="userSpaceOnUse" />
  </defs>
  <g
     inkscape:label="Layer 1"
     inkscape:groupmode="layer"
     id="layer1">
    <path
       id="rect4544"
       style="fill:url(#linearGradient14681);stroke-width:1.51215;stroke-linecap:round;stroke-linejoin:round;fill-opacity:1"
       d="M 0,0 H 317.5 V 31.75 H 0 Z" />
    <path
       id="path18441"
       style="fill:url(#linearGradient18574);fill-opacity:1;stroke-width:1.51215;stroke-linecap:round;stroke-linejoin:round;stroke:none"
       d="m 0,10.583333 c 0,0 26.908655,0.313668 61.904809,1.772053 23.151312,0.964779 49.841981,3.620867 74.623071,2.749932 56.93622,-2.001033 94.59083,-2.704454 119.06863,-1.203899 46.0375,2.822222 61.90349,4.090248 61.90349,4.090248 V 31.75 H 0 Z"
       sodipodi:nodetypes="cssscccc" />
    <text
       xml:space="preserve"
       style="font-style:normal;font-variant:normal;font-weight:bold;font-stretch:normal;font-size:7.49281px;line-height:1.25;font-family:'Malgun Gothic';-inkscape-font-specification:'Malgun Gothic Bold';fill:url(#radialGradient25605);fill-opacity:1;stroke:none;stroke-width:0.145155;stroke-miterlimit:4;stroke-dasharray:none;stroke-opacity:1"
       x="43.874069"
       y="16.011528"
       id="text20819"><tspan
         sodipodi:role="line"
         id="tspan20817"
         style="font-style:normal;font-variant:normal;font-weight:bold;font-stretch:normal;font-family:'Malgun Gothic';-inkscape-font-specification:'Malgun Gothic Bold';fill:url(#radialGradient25605);fill-opacity:1;stroke:none;stroke-width:0.145155;stroke-miterlimit:4;stroke-dasharray:none;stroke-opacity:1"
         x="43.874069"
         y="16.011528">Dedicated to the hundreds of thousands of innocent people</tspan><tspan
         sodipodi:role="line"
         style="font-style:normal;font-variant:normal;font-weight:bold;font-stretch:normal;font-family:'Malgun Gothic';-inkscape-font-specification:'Malgun Gothic Bold';fill:url(#radialGradient25605);fill-opacity:1;stroke:none;stroke-width:0.145155;stroke-miterlimit:4;stroke-dasharray:none;stroke-opacity:1"
         x="43.874069"
         y="25.377541"
         id="tspan5408">                                                   murdered in the 2022 Ukraine war</tspan></text>
    <path
       style="fill:url(#radialGradient25389);fill-opacity:1;stroke:none;stroke-width:0.0275612"
       d="m 22.891541,29.061361 c -0.125999,-0.06516 -0.286864,-0.232031 -0.358248,-0.371463 -0.177947,-0.347613 -0.198765,-0.723611 -0.0915,-1.652503 0.06,-0.519229 0.06234,-0.635894 0.0705,-3.440803 l 0.0084,-2.903374 -0.122337,-0.169733 c -0.06734,-0.09334 -0.178681,-0.231731 -0.247431,-0.30753 l -0.125,-0.137832 -0.0016,0.647695 c -0.0016,0.675343 -0.01766,0.816626 -0.103663,0.934941 -0.07716,0.106162 -0.271931,0.195065 -0.427246,0.195065 -0.170031,0 -0.285847,-0.0505 -0.406696,-0.177365 l -0.0965,-0.101338 -0.0084,-1.204306 -0.0084,-1.204289 -0.28113,-0.213482 C 20.537627,18.837717 20.245164,18.620586 20.042299,18.472719 17.850868,16.875484 16.975008,16.159656 15.990351,15.161131 14.518213,13.668246 13.585454,12.117525 13.148441,10.436406 12.976075,9.7733293 12.82281,8.6919383 12.858743,8.3924743 c 0.06483,-0.539628 0.176632,-0.996958 0.344081,-1.406955 0.622894,-1.525003 1.954666,-2.634176 3.581203,-2.982574 0.322631,-0.06916 0.394364,-0.07434 1.008791,-0.07434 0.613929,0 0.686361,0.005 1.007609,0.07416 1.192406,0.255465 2.21703,0.874392 2.95464,1.784785 0.559945,0.691111 0.890692,1.514853 0.973809,2.425395 l 0.02134,0.234282 0.023,-0.165333 c 0.177049,-1.274855 0.729544,-2.334129 1.634302,-3.133472 0.749878,-0.662511 1.681336,-1.083974 2.670827,-1.208523 0.42233,-0.05316 1.217724,-0.0205 1.631854,0.06716 1.824867,0.385947 3.29367,1.776585 3.75825,3.558236 0.136999,0.525446 0.183115,0.916642 0.141833,1.20329 -0.01666,0.111337 -0.04284,0.326381 -0.05966,0.477962 -0.121837,1.1005227 -0.551129,2.4016957 -1.114941,3.3792037 l -0.124,0.214981 v 1.22914 c 0,1.343671 0.0034,1.314539 -0.163665,1.455021 -0.239199,0.201265 -0.629578,0.152331 -0.796543,-0.1 -0.07084,-0.107 -0.07384,-0.127331 -0.08716,-0.602177 l -0.01334,-0.491413 -0.147665,0.172415 c -0.08116,0.09484 -0.199049,0.228215 -0.261849,0.296432 -0.188281,0.204547 -0.194431,0.214913 -0.155499,0.261831 0.026,0.03134 0.02634,0.04134 0.0014,0.04134 -0.01966,0 -0.02934,0.03034 -0.024,0.07534 0.01,0.08966 -0.065,0.118837 -0.137832,0.0535 -0.042,-0.03784 -0.072,-0.01666 -0.33558,0.238963 -0.441464,0.427864 -1.036959,0.950043 -1.571004,1.377573 -0.42153,0.337446 -1.757834,1.346704 -2.25233,1.701102 l -0.171465,0.122825 -8.34e-4,1.991499 c -6.16e-4,1.593386 0.0066,2.045166 0.03884,2.260031 0.1165,0.78881 0.183249,1.643686 0.149833,1.919733 -0.025,0.206182 -0.139166,0.482913 -0.247249,0.599179 -0.188849,0.203115 -0.473728,0.253097 -0.672777,0.118 -0.277564,-0.188349 -0.398596,-0.48258 -0.399164,-0.970275 -3e-4,-0.293615 0.07884,-1.140491 0.151166,-1.616203 0.0335,-0.220298 0.0415,-0.593328 0.0415,-1.92575 v -1.652552 l -0.158497,0.133999 c -0.164999,0.139332 -0.354731,0.309847 -0.465814,0.41838 l -0.06484,0.06334 v 2.574561 2.574578 l 0.0685,0.393914 c 0.132998,0.76456 0.262263,1.946249 0.261697,2.392112 -6.16e-4,0.511012 -0.199615,0.951458 -0.498762,1.104073 -0.129499,0.066 -0.388896,0.07134 -0.506696,0.01 z M 28.00418,20.7067 c 0,-0.05834 -0.126499,-0.1045 -0.198382,-0.0725 -0.0505,0.0225 -0.117337,-0.0016 -0.385547,-0.140332 -0.301698,-0.155833 -0.32453,-0.173281 -0.325046,-0.248348 -7.34e-4,-0.111 -0.05934,-0.263781 -0.101163,-0.263781 -0.07134,0 -0.174915,-0.06566 -0.174915,-0.110837 0,-0.02584 -0.03834,-0.09516 -0.08516,-0.153999 -0.08134,-0.102338 -0.08434,-0.115 -0.06634,-0.282397 0.038,-0.355564 0.169349,-0.611179 0.496995,-0.967759 0.104,-0.113163 0.207383,-0.227147 0.229599,-0.253097 0.03184,-0.03716 0.0685,-0.04384 0.172665,-0.0315 0.181949,0.0215 0.400514,-0.08516 0.537945,-0.262748 l 0.09966,-0.128666 -0.01784,0.141499 -0.01784,0.141498 0.288148,0.118338 c 0.230465,0.09466 0.291413,0.131332 0.304463,0.183332 0.0084,0.03584 0.04766,0.077 0.08616,0.0915 0.08566,0.0325 0.203015,0.278281 0.291414,0.609911 0.08584,0.321998 0.08666,0.733661 0.0016,0.895526 -0.06166,0.117838 -0.163833,0.214982 -0.256732,0.244482 -0.03166,0.01 -0.05284,0.04184 -0.05284,0.0795 0,0.04866 -0.02334,0.06966 -0.104838,0.09416 -0.104162,0.03116 -0.166882,0.07934 -0.237865,0.182915 -0.0325,0.0475 -0.04616,0.04984 -0.112337,0.01966 -0.06266,-0.0285 -0.08634,-0.02716 -0.140832,0.0084 -0.036,0.02366 -0.0655,0.05984 -0.0655,0.0805 0,0.02066 -0.03716,0.043 -0.08266,0.04966 -0.057,0.0084 -0.08266,5.84e-4 -0.08266,-0.025 z m 2.797475,-1.383621 c -0.217797,-0.100837 -0.344513,-0.305531 -0.344513,-0.556562 0,-0.301248 0.152998,-1.133924 0.284197,-1.546702 0.08066,-0.253815 0.191782,-0.452714 0.266081,-0.47628 0.02966,-0.01 0.07884,-0.0034 0.109338,0.01162 0.237931,0.127332 0.623261,1.839868 0.498828,2.216914 -0.04584,0.138833 -0.182097,0.289414 -0.31763,0.35098 -0.141998,0.0645 -0.35598,0.06416 -0.496346,-8.32e-4 z M 16.582612,19.169414 c -0.044,-0.02384 -0.09634,-0.06484 -0.116337,-0.091 -0.04216,-0.0555 -0.05,-0.216115 -0.01163,-0.239831 0.015,-0.0084 0.01934,-0.03466 0.01,-0.057 -0.0084,-0.02234 0.0034,-0.07066 0.028,-0.107337 0.04234,-0.0645 0.04116,-0.06716 -0.03484,-0.08384 -0.112,-0.02466 -0.217081,-0.110337 -0.409062,-0.334113 l -0.167933,-0.195733 0.015,-0.168981 c 0.01,-0.114 0.005,-0.182315 -0.01884,-0.210033 -0.02766,-0.03334 -0.02284,-0.05934 0.02534,-0.137165 0.03266,-0.05284 0.062,-0.130665 0.06534,-0.172765 0.0034,-0.0525 0.023,-0.07934 0.0605,-0.08516 0.09216,-0.015 0.176865,-0.06716 0.193765,-0.120338 0.01,-0.03384 0.04266,-0.05066 0.09584,-0.05066 0.04384,0 0.09516,-0.01666 0.113838,-0.0365 0.01866,-0.02 0.06266,-0.031 0.09766,-0.02434 0.035,0.0066 0.0805,-0.0016 0.101163,-0.019 0.0285,-0.02366 0.04584,-0.02116 0.07184,0.01 0.01884,0.02266 0.107337,0.05634 0.196582,0.07466 0.08934,0.0185 0.162332,0.043 0.162332,0.0545 0,0.039 0.120337,0.133331 0.170032,0.133331 0.02984,0 0.05634,0.0275 0.06684,0.0695 0.01,0.03816 0.044,0.088 0.07634,0.110663 0.05284,0.037 0.05984,0.07166 0.06816,0.343263 0.01163,0.377098 -0.03716,0.563513 -0.150165,0.572863 -0.03934,0.0034 -0.105838,0.03384 -0.147667,0.068 -0.04184,0.03416 -0.097,0.0745 -0.1225,0.08966 -0.04334,0.02584 -0.04334,0.039 9.34e-4,0.206949 0.055,0.208515 0.03884,0.310614 -0.05934,0.37493 -0.09934,0.06516 -0.28598,0.0775 -0.382413,0.02534 z m 11.58005,-1.918533 c -0.100837,-0.05866 -0.03366,-0.273397 0.08534,-0.273397 0.132498,0 0.224497,0.182064 0.136498,0.270097 -0.04,0.04 -0.155832,0.04184 -0.221865,0.0034 z M 13.583087,15.076683 c -0.0415,-0.01334 -0.118333,-0.05 -0.170832,-0.0825 -0.09433,-0.05834 -0.09533,-0.061 -0.0865,-0.229865 0.005,-0.094 0.02167,-0.201899 0.037,-0.239799 0.04633,-0.114162 0.152332,-0.213581 0.249031,-0.233947 0.109332,-0.023 0.335981,0.03716 0.335981,0.08916 0,0.01984 0.01867,0.04334 0.04133,0.052 0.02267,0.0084 0.04133,0.03316 0.04133,0.05434 0,0.02116 0.01166,0.03834 0.02483,0.03834 0.01333,0 0.02967,0.06516 0.03533,0.144665 0.0083,0.123 -7.33e-4,0.160333 -0.0645,0.249831 -0.04133,0.05784 -0.07883,0.115338 -0.08367,0.127666 -0.01333,0.03466 -0.274715,0.05634 -0.359614,0.02984 z M 32.94872,14.582487 c -0.133331,-0.08134 -0.207331,-0.311814 -0.158499,-0.494113 0.015,-0.053 0.0295,-0.061 0.08916,-0.046 0.175199,0.04366 0.333882,0.233814 0.333882,0.39998 0,0.187815 -0.09984,0.240698 -0.264565,0.140165 z m 0.365313,-2.933307 c -0.116162,-0.198149 -0.107662,-0.213533 0.180799,-0.327548 0.139665,-0.05516 0.262998,-0.09484 0.274014,-0.088 0.01163,0.0066 0.02816,0.06684 0.03816,0.133167 0.03116,0.207797 -0.08534,0.355729 -0.306931,0.389879 -0.110837,0.017 -0.114162,0.015 -0.186031,-0.1075 z m 0.48658,-2.3310137 c -0.08316,-0.01163 -0.154498,-0.05066 -0.254698,-0.138498 -0.0765,-0.06716 -0.134499,-0.126666 -0.128999,-0.132333 0.005,-0.005 -7.16e-4,-0.05934 -0.01334,-0.119162 -0.05634,-0.250881 0.08884,-0.488263 0.345247,-0.564411 0.190815,-0.05666 0.300981,-0.05166 0.362479,0.01666 0.02834,0.03116 0.07234,0.05134 0.098,0.04466 0.05984,-0.015 0.126499,0.128832 0.162332,0.351513 0.02466,0.153999 0.022,0.169349 -0.04616,0.261848 -0.03984,0.054 -0.1165,0.144832 -0.170347,0.201615 -0.101838,0.107662 -0.121,0.111837 -0.353748,0.0785 z m -22.07731,-1.393004 c -0.129332,-0.199783 -0.122499,-0.214999 0.148665,-0.328181 0.133666,-0.05584 0.257182,-0.101338 0.274498,-0.101 0.06833,8.33e-4 0.0905,0.244965 0.03367,0.369863 -0.038,0.08334 -0.177915,0.154331 -0.303514,0.153831 -0.07467,-3.16e-4 -0.103999,-0.01834 -0.153332,-0.0945 z m 11.051639,-3.067791 c -0.08916,-0.131332 -0.117663,-0.225197 -0.117663,-0.387413 0,-0.127665 0.01,-0.163998 0.05516,-0.191882 0.038,-0.02366 0.05516,-0.06434 0.05516,-0.130665 0,-0.053 0.0066,-0.09616 0.015,-0.09616 0.02766,0 0.135499,0.06266 0.152333,0.08834 0.0084,0.01334 0.05334,-0.017 0.09834,-0.06816 0.0815,-0.09266 0.0825,-0.093 0.173565,-0.04984 0.09034,0.04284 0.0925,0.04234 0.149833,-0.03616 0.154499,-0.211631 0.137165,-0.203749 0.233747,-0.107163 0.096,0.096 0.118338,0.249948 0.04484,0.310898 -0.02734,0.02266 -0.04134,0.0845 -0.04134,0.183199 0,0.130998 -0.0084,0.151831 -0.06484,0.173548 -0.07034,0.02666 -0.253715,0.225198 -0.300731,0.325396 -0.041,0.08716 -0.137333,0.0785 -0.252765,-0.02284 -0.105663,-0.09284 -0.167248,-0.0845 -0.141332,0.019 0.02166,0.08634 0.0034,0.08334 -0.05984,-0.01 z m 7.181321,-0.82476 c -0.02534,-0.0066 -0.066,-0.0425 -0.09016,-0.0795 -0.02416,-0.037 -0.06684,-0.06734 -0.09466,-0.06734 -0.0605,0 -0.163833,-0.245631 -0.188016,-0.44723 -0.01334,-0.112 -0.005,-0.143665 0.057,-0.225547 0.04,-0.05234 0.07266,-0.1145 0.07266,-0.137833 0,-0.05416 0.0775,-0.103 0.30718,-0.193531 l 0.183149,-0.07216 0.135499,0.0535 c 0.244914,0.0965 0.387013,0.197449 0.387013,0.274832 0,0.03816 0.02334,0.08884 0.05166,0.1125 0.06734,0.05616 0.07034,0.335513 0.005,0.456429 -0.114338,0.211032 -0.355598,0.34478 -0.614711,0.340714 -0.091,-0.0014 -0.186115,-0.0084 -0.211482,-0.015 z m -15.13762,-0.123831 c -0.059,-0.08434 -0.05534,-0.169382 0.01,-0.228582 0.110337,-0.09983 0.290881,0.031 0.271847,0.197032 -0.0084,0.0695 -0.02066,0.0785 -0.1235,0.086 -0.09334,0.0066 -0.122662,-0.0034 -0.158499,-0.05434 z m 4.481662,-0.221332 c -0.01816,-0.01816 -0.03316,-0.07384 -0.03316,-0.1235 0,-0.07466 0.01334,-0.09366 0.07284,-0.108663 0.09616,-0.02416 0.213599,0.01916 0.225965,0.08334 0.01816,0.0945 -0.052,0.181848 -0.146332,0.181848 -0.0475,0 -0.101163,-0.015 -0.119338,-0.03316 z M 16.1404,3.4471503 c -0.01,-0.01666 -0.04316,-0.02984 -0.07334,-0.02984 -0.03016,0 -0.101662,-0.02684 -0.158666,-0.05966 -0.102,-0.05866 -0.1035,-0.06216 -0.09734,-0.213598 0.01,-0.229432 0.03734,-0.30993 0.141167,-0.40888 0.066,-0.06284 0.120337,-0.0895 0.181747,-0.08934 0.157666,5.16e-4 0.294331,0.0335 0.294331,0.07084 0,0.02 0.015,0.04634 0.0345,0.0585 0.04766,0.0305 0.09616,0.139998 0.1165,0.263747 0.015,0.08666 0.0016,0.128333 -0.07384,0.251548 -0.062,0.100662 -0.1085,0.147332 -0.145999,0.146498 -0.03034,-6.32e-4 -0.08784,0.0084 -0.127832,0.0195 -0.04434,0.01334 -0.08,0.0084 -0.09116,-0.01 z"
       id="path24938"
       sodipodi:nodetypes="cssscsscsssscccssssssssssscsssssscscsssscsssssssssccsssscsscsscccscsccssscsssssssscccssssssssssssssscssscsscccsssssscsssssssssssssssssssscsccsssssssssssssssssssssssssssssssscssssssssscscsssssssssssssssssssssssssscsssssssssssssssssssssssscsssscsss" />
  </g>
</svg>
