<?xml version="1.0" encoding="UTF-8" standalone="no"?>
<!-- Created with Inkscape (http://www.inkscape.org/) -->

<svg
   width="1200"
   height="224"
   viewBox="0 0 317.49999 59.266669"
   version="1.1"
   id="svg4461"
   inkscape:version="1.2.2 (b0a8486541, 2022-12-01)"
   sodipodi:docname="ua.svg"
   inkscape:export-filename="../ua.png"
   inkscape:export-xdpi="160"
   inkscape:export-ydpi="160"
   xml:space="preserve"
   xmlns:inkscape="http://www.inkscape.org/namespaces/inkscape"
   xmlns:sodipodi="http://sodipodi.sourceforge.net/DTD/sodipodi-0.dtd"
   xmlns:xlink="http://www.w3.org/1999/xlink"
   xmlns="http://www.w3.org/2000/svg"
   xmlns:svg="http://www.w3.org/2000/svg"><sodipodi:namedview
     id="namedview4463"
     pagecolor="#ffffff"
     bordercolor="#666666"
     borderopacity="1.0"
     inkscape:pageshadow="2"
     inkscape:pageopacity="0.0"
     inkscape:pagecheckerboard="0"
     inkscape:document-units="px"
     showgrid="false"
     units="px"
     inkscape:zoom="2.8284271"
     inkscape:cx="1093.7174"
     inkscape:cy="149.37631"
     inkscape:window-width="1920"
     inkscape:window-height="1003"
     inkscape:window-x="0"
     inkscape:window-y="0"
     inkscape:window-maximized="1"
     inkscape:current-layer="layer1"
     inkscape:snap-global="true"
     inkscape:snap-bbox="true"
     inkscape:snap-nodes="false"
     inkscape:snap-bbox-midpoints="true"
     inkscape:snap-bbox-edge-midpoints="true"
     inkscape:bbox-nodes="true"
     inkscape:bbox-paths="true"
     inkscape:showpageshadow="2"
     inkscape:deskcolor="#d1d1d1"
     showborder="true" /><defs
     id="defs4458"><linearGradient
       inkscape:collect="always"
       id="linearGradient25603"><stop
         style="stop-color:#ff0000;stop-opacity:1;"
         offset="0"
         id="stop25599" /><stop
         style="stop-color:#ff0000;stop-opacity:0;"
         offset="1"
         id="stop25601" /></linearGradient><linearGradient
       inkscape:collect="always"
       id="linearGradient25387"><stop
         style="stop-color:#ff0000;stop-opacity:1;"
         offset="0"
         id="stop25383" /><stop
         style="stop-color:#ff0000;stop-opacity:0;"
         offset="1"
         id="stop25385" /></linearGradient><radialGradient
       inkscape:collect="always"
       xlink:href="#linearGradient25603"
       id="radialGradient25605"
       cx="139.285"
       cy="47.803127"
       fx="139.285"
       fy="47.803127"
       r="99.334663"
       gradientTransform="matrix(3.9282629,0.15950685,-0.0308432,0.75959429,-354.49577,-41.088755)"
       gradientUnits="userSpaceOnUse" /><radialGradient
       inkscape:collect="always"
       xlink:href="#linearGradient25387"
       id="radialGradient985"
       cx="45.319809"
       cy="40.345932"
       fx="45.319809"
       fy="40.345932"
       r="16.948545"
       gradientTransform="matrix(0.80455663,2.2476512,-1.3668659,0.48927568,45.301722,-100.24974)"
       gradientUnits="userSpaceOnUse" /></defs><g
     inkscape:label="Layer 1"
     inkscape:groupmode="layer"
     id="layer1"><path
       id="rect4544"
       style="fill:#000000;fill-opacity:1;stroke-width:1.51215;stroke-linecap:round;stroke-linejoin:round"
       d="M 0,0 H 317.5 V 59.266667 H 0 Z"
       sodipodi:nodetypes="ccccc" /><text
       xml:space="preserve"
       style="font-style:normal;font-variant:normal;font-weight:bold;font-stretch:normal;font-size:9.53256px;line-height:1.25;font-family:'Fira Sans SemiBold';-inkscape-font-specification:'Fira Sans SemiBold,  Bold';fill:url(#radialGradient25605);fill-opacity:1;stroke:none;stroke-width:0.145155;stroke-miterlimit:4;stroke-dasharray:none;stroke-opacity:1"
       x="48.107407"
       y="15.44562"
       id="text20819"><tspan
         sodipodi:role="line"
         id="tspan20817"
         style="font-style:normal;font-variant:normal;font-weight:bold;font-stretch:normal;font-family:'Fira Sans SemiBold';-inkscape-font-specification:'Fira Sans SemiBold,  Bold';fill:url(#radialGradient25605);fill-opacity:1;stroke:none;stroke-width:0.145155;stroke-miterlimit:4;stroke-dasharray:none;stroke-opacity:1"
         x="48.107407"
         y="15.44562">Dedicated to the hundreds of thousands of innocent people</tspan><tspan
         sodipodi:role="line"
         style="font-style:normal;font-variant:normal;font-weight:bold;font-stretch:normal;font-family:'Fira Sans SemiBold';-inkscape-font-specification:'Fira Sans SemiBold,  Bold';fill:url(#radialGradient25605);fill-opacity:1;stroke:none;stroke-width:0.145155;stroke-miterlimit:4;stroke-dasharray:none;stroke-opacity:1"
         x="48.107407"
         y="27.36132"
         id="tspan608">    murdered in the 2022 Ukraine war Eastern Slavic People</tspan><tspan
         sodipodi:role="line"
         style="font-style:normal;font-variant:normal;font-weight:bold;font-stretch:normal;font-family:'Fira Sans SemiBold';-inkscape-font-specification:'Fira Sans SemiBold,  Bold';fill:url(#radialGradient25605);fill-opacity:1;stroke:none;stroke-width:0.145155;stroke-miterlimit:4;stroke-dasharray:none;stroke-opacity:1"
         x="48.107407"
         y="39.27702"
         id="tspan1405">GENOCIDE. And the genocide is still going actively, right now.</tspan></text><path
       class="st0"
       d="M 29.620186,4.9238973 C 26.306763,4.9234326 23.454207,6.8798131 22.133858,9.6952108 20.813509,6.8798131 17.960954,4.9234048 14.64753,4.9238973 10.079457,4.9234326 6.3725858,8.6312624 6.3720938,13.199327 c 0,2.192633 0.554615,3.883793 1.455436,5.348081 0.561259,0.912883 1.356274,1.652286 2.0366259,2.541787 3.1465943,4.114347 1.7155183,7.041947 1.4901283,8.130262 -0.153048,0.739653 0.204968,1.456914 0.805596,1.456914 0.635815,0 0.97513,-0.574544 0.874,-1.503423 -0.167075,-1.535646 -0.576761,-4.226296 0.678383,-4.085795 3.210078,0.359245 1.047717,11.552939 0.954951,12.40036 -0.127458,1.163123 0.26107,1.747264 0.939699,1.743572 0.932316,-0.0056 1.00195,-0.832419 0.906233,-1.720443 -0.105802,-0.981775 -1.221927,-9.410254 0.663373,-8.848264 0.960612,0.286416 0.278539,3.87518 1.658189,3.9768 0.695853,0.05143 0.338822,-1.107751 1.27852,-0.931827 2.814907,0.526567 0.753676,18.243026 0.406242,19.747425 -0.376223,1.628906 0.311756,2.680802 1.614143,2.680802 1.413852,0 2.03072,-1.07084 1.607253,-2.679817 -0.561013,-2.131115 -2.816384,-19.847565 1.190923,-19.752102 1.142203,0.02678 1.036152,2.951233 0.644428,4.579394 -0.197586,0.821343 0.245075,1.34791 0.722672,1.323303 0.394678,-0.02047 0.774838,-0.182817 0.701268,-1.210356 -0.08932,-1.248504 -1.59003,-7.316553 0.0908,-7.733864 2.341492,-0.581688 1.123257,10.850689 0.914599,12.236729 -0.201768,1.340033 0.577745,1.66483 1.131622,1.661147 0.50442,-0.0037 1.124488,-0.193893 1.020406,-1.591259 -0.105563,-1.418283 -2.783167,-15.320586 0.39763,-15.882092 2.024077,-0.357524 0.886302,6.631032 0.561996,8.911494 -0.218744,1.537628 0.912632,1.625715 1.235707,1.631621 0.478829,0.0083 1.292053,-0.271407 1.161395,-1.760061 -0.142468,-1.62472 -2.257094,-8.666425 0.889502,-12.78077 0.680351,-0.889494 1.475366,-1.628905 2.036626,-2.541778 0.90082,-1.464541 1.455435,-3.155699 1.455435,-5.348082 C 37.895131,8.6312624 34.188266,4.9234048 29.620192,4.9238973 Z M 22.133858,31.509526 C 16.758712,23.777874 8.8700788,21.728207 8.8700788,13.906998 c 0,-2.200752 1.1220269,-4.0493847 2.6188002,-5.440845 2.284652,-2.1239737 0.914845,4.875889 0.688963,6.129564 -0.204229,1.133586 0.153295,1.99971 1.209624,1.976339 0.849147,-0.01869 1.347169,-0.911646 0.832661,-1.849126 -0.719475,-1.31125 -1.712075,-7.3475559 0.134841,-7.6312573 0.823065,-0.126479 0.417315,1.4697005 1.323302,1.4512505 0.853331,-0.01749 0.834631,-1.5777281 1.567146,-1.4556867 2.186229,0.3644142 3.968923,1.9136017 4.888689,3.8709955 0.607273,-1.2947613 1.529991,-2.5100461 2.829672,-3.0855772 3.090494,-1.3685746 1.327977,8.9439772 1.282703,9.5788122 -0.06963,0.975127 0.266974,1.422217 0.946094,1.422217 0.777791,0 1.134822,-0.638518 0.960612,-1.526541 C 27.7029,15.050675 26.67413,7.0422157 28.677537,6.9664223 30.64379,6.8921153 29.484363,11.55 29.456066,12.117662 c -0.02485,0.49876 0.09866,0.835861 0.516477,0.841516 0.383112,0.0056 0.577006,-0.250975 0.551417,-0.841516 -0.01747,-0.400591 -1.019667,-5.4497086 0.952245,-4.475317 0.578484,0.2859241 1.115385,0.6434464 1.591753,1.0686346 1.429108,1.275809 2.329681,3.1318354 2.329927,5.1969954 2.78e-4,7.569749 -8.181196,9.91837 -13.264027,17.601551 z"
       id="path161"
       style="fill:url(#radialGradient985);fill-opacity:1;stroke-width:0.264583" /><path
       style="opacity:1;fill:none;stroke:#d70000;stroke-width:0.661458;stroke-linecap:round;stroke-linejoin:bevel;stroke-dasharray:none;stroke-opacity:1"
       d="M 126.36456,18.668958 208.99343,31.38584"
       id="path683" /><path
       style="opacity:1;fill:none;stroke:#d70000;stroke-width:0.661458;stroke-linecap:round;stroke-linejoin:bevel;stroke-dasharray:none;stroke-opacity:1"
       d="M 126.36456,31.38584 208.99343,18.668958"
       id="path1328" /><text
       xml:space="preserve"
       style="font-style:normal;font-variant:normal;font-weight:bold;font-stretch:normal;font-size:2.46124px;line-height:1.25;font-family:'Fira Sans SemiBold';-inkscape-font-specification:'Fira Sans SemiBold,  Bold';text-align:end;text-anchor:end;fill:#808080;fill-opacity:1;stroke:none;stroke-width:0.145154;stroke-miterlimit:4;stroke-dasharray:none;stroke-opacity:1"
       x="308.52707"
       y="56.608524"
       id="text1492"><tspan
         sodipodi:role="line"
         style="font-style:normal;font-variant:normal;font-weight:bold;font-stretch:normal;font-family:'Fira Sans SemiBold';-inkscape-font-specification:'Fira Sans SemiBold,  Bold';text-align:end;text-anchor:end;fill:#808080;fill-opacity:1;stroke:none;stroke-width:0.145154;stroke-miterlimit:4;stroke-dasharray:none;stroke-opacity:1"
         x="308.52707"
         y="56.608524"
         id="tspan2279">Bleeding heart SVG I bought on https://www.creativefabrica.com/product/bleeding-hearts-hearts-svg for 1$ (Order#: 74579417). Copyright belongs to its author.</tspan></text></g><style
     type="text/css"
     id="style159">
	.st0{fill:#BE1E2D;}
</style><style
     type="text/css"
     id="style3770">
	.st0{fill:#BE1E2D;}
</style></svg>
