<?xml version="1.0" encoding="UTF-8" standalone="no"?>
<!-- Created with Inkscape (http://www.inkscape.org/) -->

<svg
   width="100"
   height="100"
   viewBox="0 0 26.458333 26.458334"
   version="1.1"
   id="svg1409"
   inkscape:version="1.1.2 (b8e25be833, 2022-02-05)"
   sodipodi:docname="icon.svg"
   xmlns:inkscape="http://www.inkscape.org/namespaces/inkscape"
   xmlns:sodipodi="http://sodipodi.sourceforge.net/DTD/sodipodi-0.dtd"
   xmlns="http://www.w3.org/2000/svg"
   xmlns:svg="http://www.w3.org/2000/svg">
  <sodipodi:namedview
     id="namedview1411"
     pagecolor="#ffffff"
     bordercolor="#666666"
     borderopacity="1.0"
     inkscape:pageshadow="2"
     inkscape:pageopacity="0.0"
     inkscape:pagecheckerboard="0"
     inkscape:document-units="px"
     showgrid="false"
     units="px"
     inkscape:zoom="3.115"
     inkscape:cx="19.101124"
     inkscape:cy="43.659711"
     inkscape:window-width="1366"
     inkscape:window-height="705"
     inkscape:window-x="-8"
     inkscape:window-y="-8"
     inkscape:window-maximized="1"
     inkscape:current-layer="layer1"
     inkscape:snap-bbox="true"
     inkscape:bbox-paths="true"
     inkscape:bbox-nodes="true"
     inkscape:snap-bbox-edge-midpoints="true"
     inkscape:snap-bbox-midpoints="true"
     inkscape:object-paths="true"
     inkscape:snap-intersection-paths="true" />
  <defs
     id="defs1406" />
  <g
     inkscape:label="Layer 1"
     inkscape:groupmode="layer"
     id="layer1">
    <path
       id="path3454"
       style="font-style:normal;font-weight:normal;font-size:8.16517px;line-height:125%;font-family:Sans;-inkscape-font-specification:Sans;letter-spacing:0px;word-spacing:0px;opacity:1;fill:#ff7800;fill-opacity:1;stroke:none;stroke-width:0.0998715"
       d="M 4.3836222,6.8921752 C 4.9554575,7.5848215 6.43139,9.4767516 6.4942387,10.61809 c 0.077033,1.415767 -1.0693558,4.616537 -2.0990718,5.39489 -0.7995805,0.604772 -2.6171634,1.171625 -3.41219233,1.401529 l -0.3414608,0.09544 -0.058645,0.02373 c 0,0 -0.1456487,0.536122 0.1820565,1.16408 0.2094705,0.399676 0.49971783,0.787657 1.14587643,0.843809 0.087516,1.591311 -1.59384973,2.736218 -1.59384973,2.736218 0,0 4.55640073,-1.404517 9.99134203,-2.17645 5.434952,-0.771898 11.822319,-1.338444 11.822319,-1.338444 h -9.1e-5 c 0,0 -0.01837,-0.405532 -0.014,-0.620992 0.01926,-1.087917 0.235366,-2.30412 0.235366,-2.32162 0.711277,-0.200282 1.482943,-0.44637 2.189674,-0.730002 2.03858,-0.811012 1.915337,-1.801511 1.915337,-1.801511 0,0 -1.659676,-1.069189 -4.223438,-2.033652 C 19.669509,10.288225 19.969483,8.2869945 16.784947,6.1647173 13.600504,4.0419961 12.87995,5.1674397 9.565341,4.7815416 6.5017798,4.4272966 6.7224364,4.0190672 5.9600474,3.9075302 5.1976567,3.7939956 4.3842334,4.93979 4.2005994,5.5813373 4.0192326,6.2136481 4.1428248,6.5945438 4.1471954,6.6038315 Z M 14.690509,6.6154923 C 13.946685,6.5576152 12.888956,6.4959822 12.219617,6.5308108 11.573377,6.5664931 11.445581,6.340841 10.931872,6.1564199 10.42061,5.9746962 9.523333,5.8278866 9.523333,5.8278866 c 0,0 0.67634,-0.1983184 1.101823,-0.1674848 0.425315,0.035682 0.320888,-0.070511 1.389993,0.4067099 0.669429,0.3023605 1.868858,0.4674381 2.67536,0.5506854 z M 1.0610557,17.305242 c -0.035887,-0.177694 -0.084033,-0.439148 -0.11643703,-0.745709 -0.094959,-0.843792 -0.028,-1.611269 -0.028,-1.611269 0,0 -0.3162442,1.108866 -0.2508687,1.885647 0.028017,0.313441 0.042904,0.446166 0.053404,0.566786 M 4.1149892,6.7598604 c -0.012293,0 -0.076145,0.070511 -0.3998347,0.5230445 -0.3601983,0.5021985 -0.6043233,1.4759154 -0.6043233,1.4759154 0,0 0.2674961,-0.5808361 0.6716263,-1.1133901 C 4.054418,7.2908096 4.3264571,7.066438 4.3520152,7.0482212 M 6.9434759e-7,22.55865 C 5.9824487,21.592445 11.298533,21.081778 18.140104,21.074198 c 2.390537,-0.0017 4.967263,0.05617 7.823821,0.178309 0,0 -3.014733,-0.839251 -3.588926,-1.58537 0,0 -3.88023,-0.01366 -11.262726,0.837083 C 3.7297655,21.355661 6.9434759e-7,22.55865 6.9434759e-7,22.55865 Z" />
  </g>
</svg>
