<?xml version="1.0" encoding="UTF-8" standalone="no"?>
<!-- Created with Inkscape (http://www.inkscape.org/) -->

<svg
   width="100"
   height="70.522003"
   viewBox="0 0 26.458333 18.658947"
   version="1.1"
   id="svg1409"
   inkscape:version="1.1.2 (b8e25be833, 2022-02-05)"
   sodipodi:docname="logo.svg"
   xmlns:inkscape="http://www.inkscape.org/namespaces/inkscape"
   xmlns:sodipodi="http://sodipodi.sourceforge.net/DTD/sodipodi-0.dtd"
   xmlns="http://www.w3.org/2000/svg"
   xmlns:svg="http://www.w3.org/2000/svg">
  <sodipodi:namedview
     id="namedview1411"
     pagecolor="#ffffff"
     bordercolor="#666666"
     borderopacity="1.0"
     inkscape:pageshadow="2"
     inkscape:pageopacity="0.0"
     inkscape:pagecheckerboard="0"
     inkscape:document-units="px"
     showgrid="false"
     units="px"
     inkscape:zoom="6.23"
     inkscape:cx="50"
     inkscape:cy="35.313002"
     inkscape:window-width="1366"
     inkscape:window-height="705"
     inkscape:window-x="-8"
     inkscape:window-y="-8"
     inkscape:window-maximized="1"
     inkscape:current-layer="layer1" />
  <defs
     id="defs1406" />
  <g
     inkscape:label="Layer 1"
     inkscape:groupmode="layer"
     id="layer1">
    <path
       id="path3454"
       style="font-style:normal;font-weight:normal;font-size:8.16517px;line-height:125%;font-family:Sans;-inkscape-font-specification:Sans;letter-spacing:0px;word-spacing:0px;opacity:1;fill:#ff7800;fill-opacity:1;stroke:none;stroke-width:0.0998715"
       d="M 4.3836215,2.9924915 C 4.9554568,3.6851378 6.4313893,5.5770679 6.494238,6.7184063 6.5712708,8.134174 5.4248822,11.334944 4.3951662,12.113297 3.5955857,12.718069 1.7780028,13.284922 0.9829739,13.514826 l -0.34146082,0.09544 -0.0586453,0.02373 c 0,0 -0.14564866,0.536122 0.18205654,1.16408 0.20947046,0.399676 0.49971778,0.787657 1.14587638,0.843809 0.087516,1.591311 -1.5938497,2.736218 -1.5938497,2.736218 0,0 4.5564007,-1.404517 9.991342,-2.17645 5.434952,-0.771898 11.822319,-1.338444 11.822319,-1.338444 h -9.1e-5 c 0,0 -0.01837,-0.405532 -0.014,-0.620992 0.01926,-1.087917 0.235366,-2.30412 0.235366,-2.32162 0.711277,-0.200282 1.482943,-0.44637 2.189674,-0.730002 2.03858,-0.811012 1.915337,-1.8015118 1.915337,-1.8015118 0,0 -1.659676,-1.0691885 -4.223438,-2.033652 C 19.669508,6.3885414 19.969482,4.3873108 16.784946,2.2650336 13.600503,0.14231239 12.879949,1.267756 9.56534,0.8818579 6.5017791,0.52761292 6.7224357,0.11938353 5.9600467,0.00784647 5.197656,-0.10568811 4.3842327,1.0401063 4.2005987,1.6816536 4.0192319,2.3139644 4.1428241,2.6948601 4.1471947,2.7041478 Z M 14.690508,2.7158086 C 13.946684,2.6579315 12.888955,2.5962985 12.219616,2.6311271 11.573376,2.6668094 11.44558,2.4411573 10.931871,2.2567362 10.420609,2.0750125 9.5233322,1.9282029 9.5233322,1.9282029 c 0,0 0.6763398,-0.1983184 1.1018228,-0.1674848 0.425315,0.035682 0.320888,-0.070511 1.389993,0.4067099 0.669429,0.3023605 1.868858,0.4674381 2.67536,0.5506854 z M 1.061055,13.405559 C 1.025168,13.227865 0.9770223,12.966411 0.94461799,12.65985 c -0.0949593,-0.843792 -0.0279995,-1.611269 -0.0279995,-1.611269 0,0 -0.31624418,1.108866 -0.25086875,1.885647 0.0280166,0.313441 0.0429041,0.446166 0.0534039,0.566786 M 4.1149885,2.8601767 c -0.012293,0 -0.076145,0.070511 -0.3998347,0.5230445 -0.3601983,0.5021985 -0.6043233,1.4759154 -0.6043233,1.4759154 0,0 0.2674961,-0.5808361 0.6716263,-1.1133901 C 4.0544173,3.3911259 4.3264564,3.1667543 4.3520145,3.1485375 M 0,18.658967 c 5.982448,-0.966205 11.298532,-1.476872 18.140103,-1.484452 2.390537,-0.0017 4.967263,0.05617 7.823821,0.178309 0,0 -3.014733,-0.839251 -3.588926,-1.58537 0,0 -3.88023,-0.01366 -11.262726,0.837083 C 3.7297648,17.455978 0,18.658967 0,18.658967 Z" />
  </g>
</svg>
